<svg width="29" height="27" fill="none" xmlns="http://www.w3.org/2000/svg"><path fill-rule="evenodd" clip-rule="evenodd" d="M13.94 0a1.8 1.8 0 0 0-1.9 1.68l-.65 10.5c-.01.14 0 .27.02.4.03.75.54 1.42 1.3 1.62l11.99 3.15c.94.25 1.91-.3 2.17-1.25.25-.94-.3-1.9-1.24-2.15l-10.59-2.78.58-9.27A1.79 1.79 0 0 0 13.94 0zm-6.3 6.3c-.8-.1-1.52.56-1.62 1.45l-.97 8.4c-.01.1-.02.18-.01.26-.08.62.31 1.28 1 1.6L15 22.12c.83.38 1.77.1 2.1-.6.34-.72-.06-1.6-.88-1.98L8 15.77l.9-7.7C9 7.18 8.43 6.4 7.63 6.3zM1.2 12.5c.1-.6.67-1.01 1.27-.91.6.1 1 .66.9 1.26l-1.07 6.29 6.16 4.25c.5.35.62 1.02.27 1.51a1.1 1.1 0 0 1-1.53.27L.5 20.55c-.17-.12-.3-.28-.37-.46a1.1 1.1 0 0 1-.11-.7l1.17-6.9z" transform="translate(1.21 .99)" fill="url(#paint0_linear)"/><defs><linearGradient id="paint0_linear" x2="1" gradientUnits="userSpaceOnUse" gradientTransform="matrix(0 25.3669 -26.9305 0 26.93 0)"><stop stop-color="#68E4FF"/><stop offset="1" stop-color="#13D5FF"/></linearGradient></defs></svg>